<svg width="88" height="88" viewBox="0 0 88 88" fill="none" xmlns="http://www.w3.org/2000/svg">
<path fill-rule="evenodd" clip-rule="evenodd" d="M53.2878 18.9475C50.4077 19.3325 47.3662 19.8898 44.0002 20.6067C40.6323 19.8917 37.5927 19.3307 34.7125 18.9475C37.38 19.9302 40.0842 21.1512 42.9515 22.5005C43.5932 22.803 44.0002 23.4483 44.0002 24.156C44.0002 23.4483 44.409 22.803 45.0488 22.5023C47.9162 21.1512 50.6222 19.9302 53.2878 18.9457V18.9475ZM44.0002 66.7682C44.0002 68.1138 42.5958 68.9993 41.3693 68.4457C32.5327 64.4453 25.0838 62.2893 15.0958 64.1117C13.9335 64.3243 12.8335 63.4535 12.8335 62.2728V19.7505C11.5135 20.0163 10.1458 20.3188 8.72133 20.6635C8.32499 20.7598 7.97259 20.9867 7.72085 21.3076C7.4691 21.6285 7.33267 22.0248 7.3335 22.4327V69.2542C7.3335 70.4147 8.40233 71.28 9.54083 71.0637C20.9313 68.8912 28.6075 68.739 39.0978 70.3303C39.558 71.235 40.2595 71.9948 41.1247 72.5254C41.99 73.0561 42.9852 73.3369 44.0002 73.3369C45.0152 73.3369 46.0104 73.0561 46.8756 72.5254C47.7408 71.9948 48.4424 71.235 48.9025 70.3303C59.391 68.739 67.0708 68.8912 78.4595 71.0637C78.727 71.1154 79.0026 71.1075 79.2668 71.0407C79.5309 70.9738 79.7771 70.8496 79.9878 70.6769C80.1985 70.5042 80.3686 70.2871 80.4859 70.0412C80.6033 69.7954 80.6651 69.5266 80.6668 69.2542V22.4345C80.6681 22.0263 80.5318 21.6296 80.2801 21.3083C80.0283 20.987 79.6757 20.7599 79.279 20.6635C77.9143 20.3328 76.5433 20.0285 75.1668 19.7505V62.2728C75.1668 63.4535 74.0668 64.3243 72.9045 64.1117C62.9165 62.2893 55.4677 64.4453 46.6328 68.4457C45.4045 68.9993 44.0002 68.1157 44.0002 66.7682Z" fill="#D4D5D8"/>
<path fill-rule="evenodd" clip-rule="evenodd" d="M14.6667 19.3178V62.2747L14.6795 62.2875C14.6916 62.2974 14.7058 62.3045 14.721 62.3084C14.7363 62.3122 14.7521 62.3125 14.7675 62.3095C25.2725 60.39 33.1247 62.7018 42.1245 66.7737C42.1291 66.7762 42.134 66.7781 42.1392 66.7792C42.1464 66.7783 42.1551 66.7758 42.1612 66.7718C42.1631 66.7707 42.1649 66.7695 42.1667 66.7682V24.1578C32.4188 19.5672 25.0397 16.7237 14.6667 19.3178ZM13.7207 15.7758C25.443 12.826 33.8507 16.1902 43.7323 20.8432C44.3606 21.1394 44.8917 21.6081 45.2637 22.1946C45.6357 22.7812 45.8332 23.4614 45.8333 24.156V66.77C45.8333 69.4797 43.0247 71.2067 40.6138 70.1177C31.9422 66.1925 24.8948 64.1887 15.4238 65.9175C13.2 66.3208 11 64.6617 11 62.2728V19.294C11 17.6715 12.0798 16.1902 13.7207 15.7758Z" fill="#D4D5D8"/>
<path fill-rule="evenodd" clip-rule="evenodd" d="M73.3334 19.3178V62.2747C73.3193 62.2906 73.3008 62.302 73.2803 62.3077C73.2652 62.311 73.2495 62.311 73.2344 62.3077C62.7258 60.39 54.8754 62.7018 45.8756 66.7755C45.8709 66.7774 45.866 66.7787 45.8609 66.7792C45.8537 66.7783 45.845 66.7758 45.8389 66.7718L45.8334 66.7682V24.156C55.5813 19.5653 62.9604 16.7237 73.3334 19.3178ZM74.2794 15.7758C62.5571 12.826 54.1494 16.1902 44.2678 20.8432C43.6395 21.1398 43.1085 21.6089 42.7365 22.1958C42.3645 22.7826 42.1669 23.463 42.1668 24.1578V66.77C42.1668 69.4797 44.9754 71.2067 47.3863 70.1177C56.0579 66.1925 63.1071 64.1887 72.5763 65.9175C74.8001 66.3208 77.0001 64.6617 77.0001 62.2728V19.294C77.0001 17.6715 75.9203 16.1902 74.2794 15.7758ZM20.1851 53.1722C26.9134 53.1025 30.6663 53.7808 37.8071 56.6977L39.1931 53.3023C31.6269 50.2132 27.3901 49.4303 20.1484 49.5055L20.1851 53.1722ZM20.1851 45.8388C26.9134 45.7692 30.6663 46.4475 37.8071 49.3643L39.1931 45.969C31.6269 42.8798 27.3901 42.097 20.1484 42.1722L20.1851 45.8388ZM20.1851 38.5055C26.9134 38.4358 30.6663 39.1142 37.8071 42.031L39.1931 38.6357C31.6269 35.5465 27.3901 34.7637 20.1484 34.8388L20.1851 38.5055ZM24.7501 23.8333V29.3333H21.0834V23.8333H24.7501ZM31.1668 25.6667V31.1667H27.5001V25.6667H31.1668ZM37.5834 27.5V33H33.9168V27.5H37.5834Z" fill="#D4D5D8"/>
<path fill-rule="evenodd" clip-rule="evenodd" d="M67.8151 53.1722C61.0868 53.1025 57.334 53.7809 50.1931 56.6977L48.8071 53.3024C56.3733 50.2132 60.6101 49.4304 67.8518 49.5055L67.8151 53.1722ZM67.8151 45.8389C61.0868 45.7692 57.334 46.4475 50.1931 49.3644L48.8071 45.969C56.3733 42.8799 60.6101 42.097 67.8518 42.1722L67.8151 45.8389ZM67.8151 38.5055C61.0868 38.4359 57.334 39.1142 50.1931 42.031L48.8071 38.6357C56.3733 35.5465 60.6101 34.7637 67.8518 34.8389L67.8151 38.5055ZM63.2501 23.8334V29.3334H66.9168V23.8334H63.2501ZM56.8335 25.6667V31.1667H60.5001V25.6667H56.8335ZM50.4168 27.5V33H54.0835V27.5H50.4168Z" fill="#D4D5D8"/>
</svg>
